<?xml version="1.0" encoding="UTF-8"?>
<svg width="48px" height="32px" viewBox="0 0 48 32" version="1.1" xmlns="http://www.w3.org/2000/svg" xmlns:xlink="http://www.w3.org/1999/xlink">
    <!-- Generator: Sketch 47.1 (45422) - http://www.bohemiancoding.com/sketch -->
    <title>if_Streamline-58_185078</title>
    <desc>Created with Sketch.</desc>
    <defs></defs>
    <g id="Page-1" stroke="none" stroke-width="1" fill="none" fill-rule="evenodd">
        <g id="if_Streamline-58_185078" fill-rule="nonzero" fill="#FFFFFF">
            <path d="M44,32 L4,32 C1.794,32 0,30.206 0,28 L0,4 C0,1.794 1.794,0 4,0 L44,0 C46.206,0 48,1.794 48,4 L48,28 C48,30.206 46.206,32 44,32 Z M4,2 C2.897,2 2,2.897 2,4 L2,28 C2,29.103 2.897,30 4,30 L44,30 C45.103,30 46,29.103 46,28 L46,4 C46,2.897 45.103,2 44,2 L4,2 Z" id="Shape"></path>
            <path d="M24,21.191 L6.457,9.84 C5.993,9.539 5.86,8.921 6.16,8.457 C6.46,7.993 7.079,7.861 7.543,8.16 L24,18.809 L40.457,8.16 C40.921,7.861 41.54,7.993 41.84,8.457 C42.14,8.921 42.007,9.539 41.543,9.84 L24,21.191 Z" id="Shape"></path>
            <path d="M6.001,26 C5.678,26 5.36,25.844 5.168,25.555 C4.861,25.095 4.985,24.475 5.445,24.168 L14.445,18.168 C14.905,17.861 15.526,17.985 15.832,18.445 C16.139,18.905 16.015,19.525 15.555,19.832 L6.555,25.832 C6.384,25.945 6.191,26 6.001,26 Z" id="Shape"></path>
            <path d="M41.999,26 C41.809,26 41.616,25.945 41.445,25.832 L32.445,19.832 C31.985,19.525 31.861,18.905 32.168,18.445 C32.474,17.985 33.094,17.861 33.555,18.168 L42.555,24.168 C43.015,24.475 43.139,25.095 42.832,25.555 C42.64,25.844 42.322,26 41.999,26 Z" id="Shape"></path>
        </g>
    </g>
</svg>