<?xml version="1.0" encoding="UTF-8"?>
<svg width="952px" height="980px" viewBox="0 0 952 980" version="1.1" xmlns="http://www.w3.org/2000/svg" xmlns:xlink="http://www.w3.org/1999/xlink">
    <!-- Generator: Sketch 47.1 (45422) - http://www.bohemiancoding.com/sketch -->
    <title>529f14bfeab6bd9489b5dd3ec7bfde67</title>
    <desc>Created with Sketch.</desc>
    <defs></defs>
    <g id="Page-1" stroke="none" stroke-width="1" fill="none" fill-rule="evenodd">
        <g id="529f14bfeab6bd9489b5dd3ec7bfde67" transform="translate(0.000000, -1.000000)" fill-rule="nonzero" fill="#FFFFFF">
            <g id="Group" transform="translate(476.000000, 490.600000) scale(-1, 1) rotate(-180.000000) translate(-476.000000, -490.600000) translate(0.000000, 0.100000)">
                <path d="M486.91,979.65 C450.57,976 437.11,974.07 412.49,969.07 C231.36,932.35 88.3,803.71 29.26,624.3 C-19,477.97 -6.89,323.75 61.76,207.03 C122.91,103.19 231.55,29.54 355.2,7.81 C444.62,-7.76 557.3,0.69 642.29,29.15 C665.17,36.65 704.59,53.38 711.32,58.19 C714.4,60.11 719.01,65.88 721.9,70.69 C735.55,93.96 722.48,125.49 696.33,132.8 C684.6,136.07 676.14,134.53 657.1,125.49 C623.26,109.53 569.99,95.69 522.5,90.49 C496.54,87.61 440.39,87.61 415.78,90.49 C245.4,110.3 132.91,222.6 110.99,394.32 C105.6,437.39 106.76,496.42 114.06,542 C147.52,750.83 309.62,894.28 512.1,894.28 C592.86,894.28 659.39,876.01 716.89,838.13 C741.12,822.17 777.27,786.02 793.42,761.79 C821.49,719.29 838.61,671.22 845.72,614.88 C849.18,586.61 847.07,520.46 841.87,492.39 C828.22,419.32 793.99,362.79 750.92,341.63 C710.73,321.82 682.27,330.67 673.24,365.67 C667.09,389.51 669.78,414.71 695.54,572 C713.42,682.76 718.04,714.49 716.31,715.83 C701.31,725.25 651.32,739.48 611.9,745.44 C578.44,750.44 519.79,750.05 489.8,744.67 C462.3,739.67 437.88,732.75 416.73,723.71 C304.82,676.21 233.09,573.92 222.52,446.43 C213.87,343.94 256.94,266.64 335.2,243.95 C348.47,240.1 354.43,239.53 382.12,239.72 C408.27,239.91 416.54,240.49 428.65,243.95 C460.76,252.8 486.34,266.06 510.76,287.02 C526.14,300.1 547.49,324.71 555.76,338.94 C560.95,347.98 564.8,348.36 564.8,339.9 C564.8,330.48 572.11,306.25 578.45,294.33 C596.91,259.91 629.41,241.26 675.75,239.14 C716.9,237.02 755.36,245.1 792.66,263.56 C877.84,305.48 932.84,392.2 948.6,509.12 C953.02,541.81 953.02,604.3 948.6,633.72 C934.56,727.37 896.68,803.51 834.38,863.7 C770.35,925.81 688.43,963.88 590.75,976.96 C574.79,979.08 500.37,981 486.91,979.65 Z M553.83,636.41 C561.72,635.26 569.02,633.72 569.98,633.14 C572.29,631.6 553.44,500.07 547.67,476.61 C542.48,456.61 533.63,435.08 522.86,416.62 C510.36,395.47 483.44,368.35 466.71,360.28 C436.71,345.67 402.48,350.09 383.45,371.05 C368.85,387.4 362.89,406.82 362.89,439.7 C362.89,497.19 383.27,550.65 419.42,588.34 C457.88,628.14 502.3,644.1 553.83,636.41 Z" id="Shape"></path>
            </g>
        </g>
    </g>
</svg>