<?xml version="1.0" encoding="UTF-8"?>
<svg width="981px" height="981px" viewBox="0 0 981 981" version="1.1" xmlns="http://www.w3.org/2000/svg" xmlns:xlink="http://www.w3.org/1999/xlink">
    <!-- Generator: Sketch 47.1 (45422) - http://www.bohemiancoding.com/sketch -->
    <title>cbe2f20bde4a6c63cd884e94fb854069</title>
    <desc>Created with Sketch.</desc>
    <defs></defs>
    <g id="Page-1" stroke="none" stroke-width="1" fill="none" fill-rule="evenodd">
        <g id="cbe2f20bde4a6c63cd884e94fb854069" fill-rule="nonzero" fill="#FFFFFF">
            <path d="M665.6,980 L665.6,980.1 C639.6,980 578.1,980 512.8,980 C578.1,980 639.7,980 665.6,980 Z M242.5,0.5 C220.5,0.9 198.3,2.3 178.4,6.1 C156.8,10.2 137.1,15.7 117.3,25.7 C97.3,35.8 80.1,49.7 64.7,64.8 C49.7,80.2 35.8,97.5 25.6,117.4 C15.6,137.1 10.1,156.7 6,178.5 C2.3,198.4 0.8,220.6 0.4,242.6 C0.3,247.6 0.3,252.2 0.2,259.3 L0,690 C0,695.5 0.1,701.4 0.1,707.9 C0.3,723.5 0.4,729.9 0.5,737.3 C0.9,759.3 2.3,781.5 6.1,801.4 C7.9,810.9 9.9,820 12.5,828.8 C15.9,840.2 20.1,851.3 25.7,862.4 C35.8,882.4 49.7,899.6 64.8,915 C80.2,930 97.5,943.9 117.4,954.1 C137.1,964.1 156.7,969.6 178.5,973.7 C198.4,977.4 220.6,978.9 242.6,979.3 C250,979.4 256.4,979.5 272,979.7 C286.8,979.8 299,979.9 308,979.9 C333,979.9 426.2,979.9 512.8,979.9 L512.8,599.9 L389.5,599.9 L389.5,457.7 L511.8,457.7 L511.8,325.5 C511.8,223.9 590.3,151.2 691.7,151.2 L823,154.1 L823,290.6 L722.8,290.6 C693.8,290.6 670.3,322.7 670.3,351.8 L670.3,457.8 L818.3,457.8 L797.2,600 L665.6,600 L665.6,980 C668,980 670.2,980 671.9,980 C680.9,980 693.1,979.9 707.9,979.8 C720.2,979.7 726.9,979.6 732.7,979.6 C734.2,979.6 735.8,979.6 737.4,979.5 C759.4,979.1 781.6,977.7 801.5,973.9 C823.1,969.8 842.8,964.3 862.6,954.3 C882.6,944.2 899.8,930.3 915.2,915.2 C930.2,899.8 944.1,882.5 954.3,862.6 C964.3,842.9 969.8,823.3 973.9,801.5 C977.6,781.6 979.1,759.4 979.5,737.4 C979.6,730 979.7,723.6 979.9,708 C980,693.2 980.1,681 980.1,672 L980.1,308 C980.1,304.9 980.1,301.4 980.1,297.6 C980.1,290.3 980,281.7 979.9,271.9 C979.7,256.3 979.6,249.9 979.5,242.5 C979.1,220.5 977.7,198.3 973.9,178.4 C969.8,156.8 964.3,137.1 954.3,117.3 C944.2,97.3 930.3,80.1 915.2,64.7 C899.8,49.7 882.5,35.8 862.6,25.6 C842.9,15.6 823.3,10.1 801.5,6 C781.6,2.3 759.4,0.8 737.4,0.4 C730,0.3 723.6,0.2 708,-1.84741111e-13 C693.1,0 680.9,0 671.9,0 L307.9,0 C298.9,0 286.7,0.1 271.9,0.2 C256.3,0.3 249.9,0.4 242.5,0.5 Z" id="Shape"></path>
        </g>
    </g>
</svg>