<?xml version="1.0" encoding="UTF-8"?>
<svg width="48px" height="46px" viewBox="0 0 48 46" version="1.1" xmlns="http://www.w3.org/2000/svg" xmlns:xlink="http://www.w3.org/1999/xlink">
    <!-- Generator: Sketch 47.1 (45422) - http://www.bohemiancoding.com/sketch -->
    <title>if_Streamline-18_185038</title>
    <desc>Created with Sketch.</desc>
    <defs></defs>
    <g id="Page-1" stroke="none" stroke-width="1" fill="none" fill-rule="evenodd">
        <g id="if_Streamline-18_185038" fill-rule="nonzero" fill="#FFFFFF">
            <path d="M42,46 L28,46 L28,33 L20,33 L20,46 L6,46 L6,25 C6,24.448 6.447,24 7,24 C7.553,24 8,24.448 8,25 L8,44 L18,44 L18,31 L30,31 L30,44 L40,44 L40,26 C40,25.448 40.447,25 41,25 C41.553,25 42,25.448 42,26 L42,46 Z" id="Shape"></path>
            <path d="M47,25 C46.751,25 46.503,24.908 46.309,24.723 L24,3.384 L1.691,24.723 C1.292,25.104 0.659,25.091 0.277,24.692 C-0.105,24.293 -0.09,23.66 0.308,23.278 L24,0.616 L47.691,23.277 C48.089,23.659 48.104,24.292 47.722,24.691 C47.526,24.896 47.264,25 47,25 Z" id="Shape"></path>
            <path d="M39,13 C38.447,13 38,12.552 38,12 L38,6 L32,6 C31.447,6 31,5.552 31,5 C31,4.448 31.447,4 32,4 L40,4 L40,12 C40,12.552 39.553,13 39,13 Z" id="Shape"></path>
        </g>
    </g>
</svg>